{
	"asset":
	{
		"version": "2.0",
		"generator": "Unreal Engine 5.8.1"
	},
	"scene": 0,
	"accessors": [
		{
			"bufferView": 0,
			"count": 948960,
			"type": "SCALAR",
			"componentType": 5125
		},
		{
			"bufferView": 1,
			"count": 247832,
			"type": "VEC3",
			"componentType": 5126,
			"min": [
				-92.6300964,
				-2.70003986,
				-43.311615
			],
			"max": [
				94.129303,
				5.09010601,
				35.1135521
			]
		},
		{
			"bufferView": 2,
			"count": 247832,
			"type": "VEC3",
			"componentType": 5126
		},
		{
			"bufferView": 3,
			"count": 247832,
			"type": "VEC4",
			"componentType": 5126
		},
		{
			"bufferView": 4,
			"count": 247832,
			"type": "VEC2",
			"componentType": 5126
		},
		{
			"bufferView": 5,
			"count": 247832,
			"type": "VEC2",
			"componentType": 5126
		},
		{
			"bufferView": 6,
			"count": 3313725,
			"type": "SCALAR",
			"componentType": 5125
		},
		{
			"bufferView": 7,
			"count": 2220326,
			"type": "VEC3",
			"componentType": 5126,
			"min": [
				-96.5242004,
				-2.5353334,
				-49.1178169
			],
			"max": [
				98.0262299,
				21.1926746,
				39.6371613
			]
		},
		{
			"bufferView": 8,
			"count": 2220326,
			"type": "VEC3",
			"componentType": 5126
		},
		{
			"bufferView": 9,
			"count": 2220326,
			"type": "VEC4",
			"componentType": 5126
		},
		{
			"bufferView": 10,
			"count": 2220326,
			"type": "VEC2",
			"componentType": 5126
		},
		{
			"bufferView": 11,
			"count": 2220326,
			"type": "VEC2",
			"componentType": 5126
		},
		{
			"bufferView": 12,
			"count": 7836,
			"type": "SCALAR",
			"componentType": 5123
		},
		{
			"bufferView": 13,
			"count": 4544,
			"type": "VEC3",
			"componentType": 5126,
			"min": [
				-94.6117935,
				4.81123018,
				-45.9049759
			],
			"max": [
				94.5356903,
				21.1926651,
				35.6040649
			]
		},
		{
			"bufferView": 14,
			"count": 4544,
			"type": "VEC3",
			"componentType": 5126
		},
		{
			"bufferView": 15,
			"count": 4544,
			"type": "VEC4",
			"componentType": 5126
		},
		{
			"bufferView": 16,
			"count": 4544,
			"type": "VEC2",
			"componentType": 5126
		},
		{
			"bufferView": 17,
			"count": 4544,
			"type": "VEC2",
			"componentType": 5126
		},
		{
			"bufferView": 18,
			"count": 206082,
			"type": "SCALAR",
			"componentType": 5125
		},
		{
			"bufferView": 19,
			"count": 134002,
			"type": "VEC3",
			"componentType": 5126,
			"min": [
				-94.7295074,
				-2.52954006,
				-45.0361824
			],
			"max": [
				94.35215,
				16.0846786,
				35.511364
			]
		},
		{
			"bufferView": 20,
			"count": 134002,
			"type": "VEC3",
			"componentType": 5126
		},
		{
			"bufferView": 21,
			"count": 134002,
			"type": "VEC4",
			"componentType": 5126
		},
		{
			"bufferView": 22,
			"count": 134002,
			"type": "VEC2",
			"componentType": 5126
		},
		{
			"bufferView": 23,
			"count": 134002,
			"type": "VEC2",
			"componentType": 5126
		},
		{
			"bufferView": 24,
			"count": 214872,
			"type": "SCALAR",
			"componentType": 5125
		},
		{
			"bufferView": 25,
			"count": 122166,
			"type": "VEC3",
			"componentType": 5126,
			"min": [
				-97.690239,
				3.59804797,
				-50.3436165
			],
			"max": [
				99.4894485,
				9.90000629,
				40.8931389
			]
		},
		{
			"bufferView": 26,
			"count": 122166,
			"type": "VEC3",
			"componentType": 5126
		},
		{
			"bufferView": 27,
			"count": 122166,
			"type": "VEC4",
			"componentType": 5126
		},
		{
			"bufferView": 28,
			"count": 122166,
			"type": "VEC2",
			"componentType": 5126
		},
		{
			"bufferView": 29,
			"count": 122166,
			"type": "VEC2",
			"componentType": 5126
		},
		{
			"bufferView": 30,
			"count": 635334,
			"type": "SCALAR",
			"componentType": 5125
		},
		{
			"bufferView": 31,
			"count": 385033,
			"type": "VEC3",
			"componentType": 5126,
			"min": [
				-96.4779205,
				-2.52954006,
				-49.0651779
			],
			"max": [
				97.945282,
				15.1000032,
				39.5812454
			]
		},
		{
			"bufferView": 32,
			"count": 385033,
			"type": "VEC3",
			"componentType": 5126
		},
		{
			"bufferView": 33,
			"count": 385033,
			"type": "VEC4",
			"componentType": 5126
		},
		{
			"bufferView": 34,
			"count": 385033,
			"type": "VEC2",
			"componentType": 5126
		},
		{
			"bufferView": 35,
			"count": 385033,
			"type": "VEC2",
			"componentType": 5126
		},
		{
			"bufferView": 36,
			"count": 1368,
			"type": "SCALAR",
			"componentType": 5123
		},
		{
			"bufferView": 37,
			"count": 988,
			"type": "VEC3",
			"componentType": 5126,
			"min": [
				-87.0878601,
				0.399992973,
				-36.8646507
			],
			"max": [
				11.7215586,
				14.8844013,
				29.9143524
			]
		},
		{
			"bufferView": 38,
			"count": 988,
			"type": "VEC3",
			"componentType": 5126
		},
		{
			"bufferView": 39,
			"count": 988,
			"type": "VEC4",
			"componentType": 5126
		},
		{
			"bufferView": 40,
			"count": 988,
			"type": "VEC2",
			"componentType": 5126
		},
		{
			"bufferView": 41,
			"count": 988,
			"type": "VEC2",
			"componentType": 5126
		},
		{
			"bufferView": 42,
			"count": 18696,
			"type": "SCALAR",
			"componentType": 5123
		},
		{
			"bufferView": 43,
			"count": 7346,
			"type": "VEC3",
			"componentType": 5126,
			"min": [
				-80.6492538,
				-0.00833770726,
				-30.0864964
			],
			"max": [
				40.8147202,
				1.98550773,
				15.9784517
			]
		},
		{
			"bufferView": 44,
			"count": 7346,
			"type": "VEC3",
			"componentType": 5126
		},
		{
			"bufferView": 45,
			"count": 7346,
			"type": "VEC4",
			"componentType": 5126
		},
		{
			"bufferView": 46,
			"count": 7346,
			"type": "VEC2",
			"componentType": 5126
		},
		{
			"bufferView": 47,
			"count": 7346,
			"type": "VEC2",
			"componentType": 5126
		},
		{
			"bufferView": 48,
			"count": 1308,
			"type": "SCALAR",
			"componentType": 5123
		},
		{
			"bufferView": 49,
			"count": 569,
			"type": "VEC3",
			"componentType": 5126,
			"min": [
				-90.4535217,
				-2.70000029,
				-45.3065414
			],
			"max": [
				91.7461014,
				0.00500183087,
				37.104126
			]
		},
		{
			"bufferView": 50,
			"count": 569,
			"type": "VEC3",
			"componentType": 5126
		},
		{
			"bufferView": 51,
			"count": 569,
			"type": "VEC4",
			"componentType": 5126
		},
		{
			"bufferView": 52,
			"count": 569,
			"type": "VEC2",
			"componentType": 5126
		},
		{
			"bufferView": 53,
			"count": 569,
			"type": "VEC2",
			"componentType": 5126
		},
		{
			"bufferView": 54,
			"count": 2451,
			"type": "SCALAR",
			"componentType": 5123
		},
		{
			"bufferView": 55,
			"count": 1601,
			"type": "VEC3",
			"componentType": 5126,
			"min": [
				-90.7261887,
				0.0150231933,
				-19.1688347
			],
			"max": [
				-76.8477554,
				3.89000368,
				6.16227913
			]
		},
		{
			"bufferView": 56,
			"count": 1601,
			"type": "VEC3",
			"componentType": 5126
		},
		{
			"bufferView": 57,
			"count": 1601,
			"type": "VEC4",
			"componentType": 5126
		},
		{
			"bufferView": 58,
			"count": 1601,
			"type": "VEC2",
			"componentType": 5126
		},
		{
			"bufferView": 59,
			"count": 1601,
			"type": "VEC2",
			"componentType": 5126
		}
	],
	"buffers": [
		{
			"uri": "SM_GOSTINKA.bin",
			"byteLength": 196306004
		}
	],
	"bufferViews": [
		{
			"buffer": 0,
			"byteLength": 3795840,
			"target": 34963
		},
		{
			"buffer": 0,
			"byteLength": 2973984,
			"byteOffset": 3795840,
			"target": 34962
		},
		{
			"buffer": 0,
			"byteLength": 2973984,
			"byteOffset": 6769824,
			"target": 34962
		},
		{
			"buffer": 0,
			"byteLength": 3965312,
			"byteOffset": 9743808,
			"target": 34962
		},
		{
			"buffer": 0,
			"byteLength": 1982656,
			"byteOffset": 13709120,
			"target": 34962
		},
		{
			"buffer": 0,
			"byteLength": 1982656,
			"byteOffset": 15691776,
			"target": 34962
		},
		{
			"buffer": 0,
			"byteLength": 13254900,
			"byteOffset": 17674432,
			"target": 34963
		},
		{
			"buffer": 0,
			"byteLength": 26643912,
			"byteOffset": 30929332,
			"target": 34962
		},
		{
			"buffer": 0,
			"byteLength": 26643912,
			"byteOffset": 57573244,
			"target": 34962
		},
		{
			"buffer": 0,
			"byteLength": 35525216,
			"byteOffset": 84217156,
			"target": 34962
		},
		{
			"buffer": 0,
			"byteLength": 17762608,
			"byteOffset": 119742372,
			"target": 34962
		},
		{
			"buffer": 0,
			"byteLength": 17762608,
			"byteOffset": 137504980,
			"target": 34962
		},
		{
			"buffer": 0,
			"byteLength": 15672,
			"byteOffset": 155267588,
			"target": 34963
		},
		{
			"buffer": 0,
			"byteLength": 54528,
			"byteOffset": 155283260,
			"target": 34962
		},
		{
			"buffer": 0,
			"byteLength": 54528,
			"byteOffset": 155337788,
			"target": 34962
		},
		{
			"buffer": 0,
			"byteLength": 72704,
			"byteOffset": 155392316,
			"target": 34962
		},
		{
			"buffer": 0,
			"byteLength": 36352,
			"byteOffset": 155465020,
			"target": 34962
		},
		{
			"buffer": 0,
			"byteLength": 36352,
			"byteOffset": 155501372,
			"target": 34962
		},
		{
			"buffer": 0,
			"byteLength": 824328,
			"byteOffset": 155537724,
			"target": 34963
		},
		{
			"buffer": 0,
			"byteLength": 1608024,
			"byteOffset": 156362052,
			"target": 34962
		},
		{
			"buffer": 0,
			"byteLength": 1608024,
			"byteOffset": 157970076,
			"target": 34962
		},
		{
			"buffer": 0,
			"byteLength": 2144032,
			"byteOffset": 159578100,
			"target": 34962
		},
		{
			"buffer": 0,
			"byteLength": 1072016,
			"byteOffset": 161722132,
			"target": 34962
		},
		{
			"buffer": 0,
			"byteLength": 1072016,
			"byteOffset": 162794148,
			"target": 34962
		},
		{
			"buffer": 0,
			"byteLength": 859488,
			"byteOffset": 163866164,
			"target": 34963
		},
		{
			"buffer": 0,
			"byteLength": 1465992,
			"byteOffset": 164725652,
			"target": 34962
		},
		{
			"buffer": 0,
			"byteLength": 1465992,
			"byteOffset": 166191644,
			"target": 34962
		},
		{
			"buffer": 0,
			"byteLength": 1954656,
			"byteOffset": 167657636,
			"target": 34962
		},
		{
			"buffer": 0,
			"byteLength": 977328,
			"byteOffset": 169612292,
			"target": 34962
		},
		{
			"buffer": 0,
			"byteLength": 977328,
			"byteOffset": 170589620,
			"target": 34962
		},
		{
			"buffer": 0,
			"byteLength": 2541336,
			"byteOffset": 171566948,
			"target": 34963
		},
		{
			"buffer": 0,
			"byteLength": 4620396,
			"byteOffset": 174108284,
			"target": 34962
		},
		{
			"buffer": 0,
			"byteLength": 4620396,
			"byteOffset": 178728680,
			"target": 34962
		},
		{
			"buffer": 0,
			"byteLength": 6160528,
			"byteOffset": 183349076,
			"target": 34962
		},
		{
			"buffer": 0,
			"byteLength": 3080264,
			"byteOffset": 189509604,
			"target": 34962
		},
		{
			"buffer": 0,
			"byteLength": 3080264,
			"byteOffset": 192589868,
			"target": 34962
		},
		{
			"buffer": 0,
			"byteLength": 2736,
			"byteOffset": 195670132,
			"target": 34963
		},
		{
			"buffer": 0,
			"byteLength": 11856,
			"byteOffset": 195672868,
			"target": 34962
		},
		{
			"buffer": 0,
			"byteLength": 11856,
			"byteOffset": 195684724,
			"target": 34962
		},
		{
			"buffer": 0,
			"byteLength": 15808,
			"byteOffset": 195696580,
			"target": 34962
		},
		{
			"buffer": 0,
			"byteLength": 7904,
			"byteOffset": 195712388,
			"target": 34962
		},
		{
			"buffer": 0,
			"byteLength": 7904,
			"byteOffset": 195720292,
			"target": 34962
		},
		{
			"buffer": 0,
			"byteLength": 37392,
			"byteOffset": 195728196,
			"target": 34963
		},
		{
			"buffer": 0,
			"byteLength": 88152,
			"byteOffset": 195765588,
			"target": 34962
		},
		{
			"buffer": 0,
			"byteLength": 88152,
			"byteOffset": 195853740,
			"target": 34962
		},
		{
			"buffer": 0,
			"byteLength": 117536,
			"byteOffset": 195941892,
			"target": 34962
		},
		{
			"buffer": 0,
			"byteLength": 58768,
			"byteOffset": 196059428,
			"target": 34962
		},
		{
			"buffer": 0,
			"byteLength": 58768,
			"byteOffset": 196118196,
			"target": 34962
		},
		{
			"buffer": 0,
			"byteLength": 2616,
			"byteOffset": 196176964,
			"target": 34963
		},
		{
			"buffer": 0,
			"byteLength": 6828,
			"byteOffset": 196179580,
			"target": 34962
		},
		{
			"buffer": 0,
			"byteLength": 6828,
			"byteOffset": 196186408,
			"target": 34962
		},
		{
			"buffer": 0,
			"byteLength": 9104,
			"byteOffset": 196193236,
			"target": 34962
		},
		{
			"buffer": 0,
			"byteLength": 4552,
			"byteOffset": 196202340,
			"target": 34962
		},
		{
			"buffer": 0,
			"byteLength": 4552,
			"byteOffset": 196206892,
			"target": 34962
		},
		{
			"buffer": 0,
			"byteLength": 4902,
			"byteOffset": 196211444,
			"target": 34963
		},
		{
			"buffer": 0,
			"byteLength": 19212,
			"byteOffset": 196216348,
			"target": 34962
		},
		{
			"buffer": 0,
			"byteLength": 19212,
			"byteOffset": 196235560,
			"target": 34962
		},
		{
			"buffer": 0,
			"byteLength": 25616,
			"byteOffset": 196254772,
			"target": 34962
		},
		{
			"buffer": 0,
			"byteLength": 12808,
			"byteOffset": 196280388,
			"target": 34962
		},
		{
			"buffer": 0,
			"byteLength": 12808,
			"byteOffset": 196293196,
			"target": 34962
		}
	],
	"images": [
		{
			"uri": "Marble_Crema_Marfil_Occlusion.png"
		}
	],
	"materials": [
		{
			"name": "Marble_Crema_Marfil",
			"pbrMetallicRoughness":
			{
				"baseColorFactor": [
					0,
					0,
					0,
					1
				],
				"metallicFactor": 0,
				"roughnessFactor": 0.5
			},
			"occlusionTexture":
			{
				"index": 0
			},
			"doubleSided": true
		},
		{
			"name": "Material__2097628045",
			"pbrMetallicRoughness":
			{
				"baseColorFactor": [
					0,
					0,
					0,
					1
				],
				"metallicFactor": 0,
				"roughnessFactor": 0.5
			},
			"occlusionTexture":
			{
				"index": 1
			},
			"doubleSided": true
		},
		{
			"name": "Material__2097628371",
			"pbrMetallicRoughness":
			{
				"baseColorFactor": [
					0,
					0,
					0,
					1
				],
				"metallicFactor": 0,
				"roughnessFactor": 0.5
			},
			"occlusionTexture":
			{
				"index": 2
			},
			"doubleSided": true
		},
		{
			"name": "Material__2097628394",
			"pbrMetallicRoughness":
			{
				"baseColorFactor": [
					0,
					0,
					0,
					1
				],
				"metallicFactor": 0,
				"roughnessFactor": 0.5
			},
			"occlusionTexture":
			{
				"index": 3
			},
			"doubleSided": true
		},
		{
			"name": "Material__2097628222",
			"pbrMetallicRoughness":
			{
				"baseColorFactor": [
					0,
					0,
					0,
					1
				],
				"metallicFactor": 0,
				"roughnessFactor": 0.5
			},
			"occlusionTexture":
			{
				"index": 4
			},
			"doubleSided": true
		},
		{
			"name": "Material__2097628641",
			"pbrMetallicRoughness":
			{
				"baseColorFactor": [
					0,
					0,
					0,
					1
				],
				"metallicFactor": 0,
				"roughnessFactor": 0.5
			},
			"occlusionTexture":
			{
				"index": 5
			},
			"doubleSided": true
		},
		{
			"name": "Зеркало",
			"pbrMetallicRoughness":
			{
				"baseColorFactor": [
					0,
					0,
					0,
					1
				],
				"metallicFactor": 0,
				"roughnessFactor": 0.5
			},
			"occlusionTexture":
			{
				"index": 6
			},
			"doubleSided": true
		},
		{
			"name": "Material__26",
			"pbrMetallicRoughness":
			{
				"baseColorFactor": [
					0,
					0,
					0,
					1
				],
				"metallicFactor": 0,
				"roughnessFactor": 0.5
			},
			"occlusionTexture":
			{
				"index": 7
			},
			"doubleSided": true
		},
		{
			"name": "Material__1659",
			"pbrMetallicRoughness":
			{
				"baseColorFactor": [
					0,
					0,
					0,
					1
				],
				"metallicFactor": 0,
				"roughnessFactor": 0.5
			},
			"occlusionTexture":
			{
				"index": 8
			},
			"doubleSided": true
		},
		{
			"name": "Stone_Santamargherita",
			"pbrMetallicRoughness":
			{
				"baseColorFactor": [
					0,
					0,
					0,
					1
				],
				"metallicFactor": 0,
				"roughnessFactor": 0.5
			},
			"occlusionTexture":
			{
				"index": 9
			},
			"doubleSided": true
		}
	],
	"meshes": [
		{
			"name": "SM_GOSTINKA",
			"primitives": [
				{
					"attributes":
					{
						"POSITION": 1,
						"NORMAL": 2,
						"TANGENT": 3,
						"TEXCOORD_0": 4,
						"TEXCOORD_1": 5
					},
					"indices": 0,
					"material": 0
				},
				{
					"attributes":
					{
						"POSITION": 7,
						"NORMAL": 8,
						"TANGENT": 9,
						"TEXCOORD_0": 10,
						"TEXCOORD_1": 11
					},
					"indices": 6,
					"material": 1
				},
				{
					"attributes":
					{
						"POSITION": 13,
						"NORMAL": 14,
						"TANGENT": 15,
						"TEXCOORD_0": 16,
						"TEXCOORD_1": 17
					},
					"indices": 12,
					"material": 2
				},
				{
					"attributes":
					{
						"POSITION": 19,
						"NORMAL": 20,
						"TANGENT": 21,
						"TEXCOORD_0": 22,
						"TEXCOORD_1": 23
					},
					"indices": 18,
					"material": 3
				},
				{
					"attributes":
					{
						"POSITION": 25,
						"NORMAL": 26,
						"TANGENT": 27,
						"TEXCOORD_0": 28,
						"TEXCOORD_1": 29
					},
					"indices": 24,
					"material": 4
				},
				{
					"attributes":
					{
						"POSITION": 31,
						"NORMAL": 32,
						"TANGENT": 33,
						"TEXCOORD_0": 34,
						"TEXCOORD_1": 35
					},
					"indices": 30,
					"material": 5
				},
				{
					"attributes":
					{
						"POSITION": 37,
						"NORMAL": 38,
						"TANGENT": 39,
						"TEXCOORD_0": 40,
						"TEXCOORD_1": 41
					},
					"indices": 36,
					"material": 6
				},
				{
					"attributes":
					{
						"POSITION": 43,
						"NORMAL": 44,
						"TANGENT": 45,
						"TEXCOORD_0": 46,
						"TEXCOORD_1": 47
					},
					"indices": 42,
					"material": 7
				},
				{
					"attributes":
					{
						"POSITION": 49,
						"NORMAL": 50,
						"TANGENT": 51,
						"TEXCOORD_0": 52,
						"TEXCOORD_1": 53
					},
					"indices": 48,
					"material": 8
				},
				{
					"attributes":
					{
						"POSITION": 55,
						"NORMAL": 56,
						"TANGENT": 57,
						"TEXCOORD_0": 58,
						"TEXCOORD_1": 59
					},
					"indices": 54,
					"material": 9
				}
			]
		}
	],
	"nodes": [
		{
			"mesh": 0
		}
	],
	"samplers": [
		{
			"minFilter": 9984,
			"magFilter": 9728,
			"wrapS": 33071,
			"wrapT": 33071
		}
	],
	"scenes": [
		{
			"nodes": [
				0
			]
		}
	],
	"textures": [
		{
			"name": "Marble_Crema_Marfil_Occlusion",
			"sampler": 0,
			"source": 0
		},
		{
			"name": "Material__2097628045_Occlusion",
			"sampler": 0,
			"source": 0
		},
		{
			"name": "Material__2097628371_Occlusion",
			"sampler": 0,
			"source": 0
		},
		{
			"name": "Material__2097628394_Occlusion",
			"sampler": 0,
			"source": 0
		},
		{
			"name": "Material__2097628222_Occlusion",
			"sampler": 0,
			"source": 0
		},
		{
			"name": "Material__2097628641_Occlusion",
			"sampler": 0,
			"source": 0
		},
		{
			"name": "Зеркало_Occlusion",
			"sampler": 0,
			"source": 0
		},
		{
			"name": "Material__26_Occlusion",
			"sampler": 0,
			"source": 0
		},
		{
			"name": "Material__1659_Occlusion",
			"sampler": 0,
			"source": 0
		},
		{
			"name": "Stone_Santamargherita_Occlusion",
			"sampler": 0,
			"source": 0
		}
	]
}